<?xml version="1.0" standalone="no"?><svg xmlns="http://www.w3.org/2000/svg" viewBox="0 0 1440 320"><path fill="#89C4E1" fill-opacity="1" d="M0,160L21.8,138.7C43.6,117,87,75,131,64C174.5,53,218,75,262,112C305.5,149,349,203,393,208C436.4,213,480,171,524,138.7C567.3,107,611,85,655,112C698.2,139,742,213,785,224C829.1,235,873,181,916,170.7C960,160,1004,192,1047,197.3C1090.9,203,1135,181,1178,186.7C1221.8,192,1265,224,1309,208C1352.7,192,1396,128,1418,96L1440,64L1440,320L1418.2,320C1396.4,320,1353,320,1309,320C1265.5,320,1222,320,1178,320C1134.5,320,1091,320,1047,320C1003.6,320,960,320,916,320C872.7,320,829,320,785,320C741.8,320,698,320,655,320C610.9,320,567,320,524,320C480,320,436,320,393,320C349.1,320,305,320,262,320C218.2,320,175,320,131,320C87.3,320,44,320,22,320L0,320Z"></path></svg>