<?xml version="1.0" standalone="no"?><svg xmlns="http://www.w3.org/2000/svg" viewBox="0 0 1440 320"><path fill="#89C4E1" fill-opacity="1" d="M0,224L34.3,197.3C68.6,171,137,117,206,90.7C274.3,64,343,64,411,101.3C480,139,549,213,617,224C685.7,235,754,181,823,181.3C891.4,181,960,235,1029,256C1097.1,277,1166,267,1234,250.7C1302.9,235,1371,213,1406,202.7L1440,192L1440,320L1405.7,320C1371.4,320,1303,320,1234,320C1165.7,320,1097,320,1029,320C960,320,891,320,823,320C754.3,320,686,320,617,320C548.6,320,480,320,411,320C342.9,320,274,320,206,320C137.1,320,69,320,34,320L0,320Z"></path></svg>